<?xml version="1.0" encoding="iso-8859-1"?>
<!-- Generator: Adobe Illustrator 19.0.0, SVG Export Plug-In . SVG Version: 6.00 Build 0)  -->
<svg xmlns="http://www.w3.org/2000/svg" xmlns:xlink="http://www.w3.org/1999/xlink" version="1.1" id="Layer_1" x="0px" y="0px" viewBox="0 0 512.001 512.001" style="enable-background:new 0 0 512.001 512.001;" xml:space="preserve" width="512px" height="512px">
<g>
	<g>
		<path d="M491.748,14.648c-19.529-19.53-51.307-19.53-70.836,0c-8.149,8.149-4.372,1.526-68.374,146.901    c-0.482,1.119-35.5,80.155-91.111,216.881c-1.938,0-151.456,0-155.721,0c-36.826,0-66.786,29.96-66.786,66.786    c0,36.826,29.96,66.786,66.786,66.786c5.129,0,159.535,0,166.964,0c26.702,0,50.786-15.847,61.356-40.373    c0.043-0.101,0.086-0.204,0.127-0.305c103.267-253.308,64.9-161.735,168.192-401.446C510.51,50.928,506.35,29.249,491.748,14.648z     M105.706,478.608c-18.413,0-33.393-14.98-33.393-33.393s14.98-33.393,33.393-33.393h4.662l22.262,66.786H105.706z     M167.829,478.608l-22.262-66.786h31.586l22.262,66.786H167.829z M387.518,251.973c-0.042,0.1-0.086,0.201-0.127,0.304    L303.3,458.549c-5.318,12.191-17.324,20.059-30.631,20.059h-38.054l-22.262-66.786h60.316c6.805,0,12.931-4.131,15.48-10.441    c0.513-1.269,49.635-122.849,90.644-216.667h37.659L387.518,251.973z M471.678,56.663l-40.836,94.77h-37.344    c51.269-116.236,48.023-110.167,51.028-113.172c6.509-6.509,17.103-6.509,23.612,0C473.006,43.13,474.396,50.354,471.678,56.663z" fill="#a3aec0"/>
	</g>
</g>
<g>
	<g>
		<path d="M155.795,244.858H55.617c-27.619,0-50.089,22.47-50.089,50.089c0,27.619,22.47,50.089,50.089,50.089h100.178    c27.619,0,50.089-22.47,50.089-50.089C205.885,267.328,183.415,244.858,155.795,244.858z M155.795,311.644H55.617    c-9.206,0-16.696-7.49-16.696-16.696c0-9.206,7.49-16.696,16.696-16.696h100.178c9.206,0,16.696,7.49,16.696,16.696    C172.492,304.154,165.002,311.644,155.795,311.644z" fill="#a3aec0"/>
	</g>
</g>
<g>
</g>
<g>
</g>
<g>
</g>
<g>
</g>
<g>
</g>
<g>
</g>
<g>
</g>
<g>
</g>
<g>
</g>
<g>
</g>
<g>
</g>
<g>
</g>
<g>
</g>
<g>
</g>
<g>
</g>
</svg>
